PathFileType	3	(X/Y/Z)	C:\Users\koon_\Desktop\
DataRate	CameraRate	NumFrames	NumMarkers	Units	OrigDataRate	OrigDataStartFrame	OrigNumFrames
100.0	100.0	5	27	mm	100.0	2632	3007	
Frame#	Time	get:LFHD			get:RFHD			get:LBHD			get:RBHD			get:C7			get:T10			get:CLAV			get:STRN			get:RBAK			get:LSHO			get:LUPA			get:LELB			get:LFRA			get:LWRA			get:LWRB			get:LFIN			get:RSHO			get:RUPA			get:RELB			get:RFRA			get:RWRA			get:RWRB			get:RFIN			get:LASI			get:RASI			get:LPSI			get:RPSI			
		X1	Y1	Z1	X2	Y2	Z2	X3	Y3	Z3	X4	Y4	Z4	X5	Y5	Z5	X6	Y6	Z6	X7	Y7	Z7	X8	Y8	Z8	X9	Y9	Z9	X10	Y10	Z10	X11	Y11	Z11	X12	Y12	Z12	X13	Y13	Z13	X14	Y14	Z14	X15	Y15	Z15	X16	Y16	Z16	X17	Y17	Z17	X18	Y18	Z18	X19	Y19	Z19	X20	Y20	Z20	X21	Y21	Z21	X22	Y22	Z22	X23	Y23	Z23	X24	Y24	Z24	X25	Y25	Z25	X26	Y26	Z26	X27	Y27	Z27	
2632	26.31	82.733101	1564.2875	-63.183041	-74.311142	1555.9221	-70.193237	83.711563	1553.7842	-187.81555	-42.024521	1557.87	-213.49118	16.114973	1384.3873	-232.28474	16.696209	1130.0243	-298.66364	6.9434967	1281.4139	-58.321426	16.248594	1092.8668	-40.301846	-70.937195	1319.0826	-269.46344	170.40939	1358.0463	-125.72426	227.46489	1210.1735	-112.72156	249.98624	1028.3306	-146.82301	205.64011	925.46912	-87.515724	181.50461	828.44922	-86.52066	247.47992	824.78387	-109.65448	228.42453	744.02167	-73.152718	-143.47502	1359.0428	-149.41261	-211.43153	1137.8961	-126.03736	-224.90823	1033.5405	-176.50009	-204.62373	962.90344	-99.734833	-180.85674	806.63702	-89.255814	-234.90701	810.97266	-138.58446	-226.07729	740.66608	-81.92881	138.9164	932.20453	-106.20897	-138.31734	924.77887	-121.56384	63.043079	962.77509	-312.12305	-47.077625	952.28168	-317.79874
2633	26.32	84.570816	1562.662	-58.547203	-72.086494	1555.0602	-65.834641	85.153297	1553.4803	-183.34685	-40.453327	1558.2511	-208.32465	16.371653	1384.8462	-229.7045	16.178598	1131.0344	-298.48132	7.5955811	1280.1862	-56.679153	16.440868	1091.5975	-40.48737	-70.980766	1320.1718	-267.27753	171.05128	1356.9862	-123.95805	227.69113	1208.9972	-112.35848	249.74422	1027.3239	-147.88333	205.77927	924.16602	-88.844368	181.43491	827.2384	-88.143524	247.26137	823.56897	-111.81248	228.2028	742.39868	-75.526123	-142.94463	1359.0721	-146.47687	-211.15303	1137.842	-124.8531	-225.05258	1033.8993	-175.9977	-204.18135	962.7135	-99.781982	-180.15701	806.4325	-90.121658	-234.63463	810.99207	-139.03204	-225.20967	740.42822	-82.758675	138.67703	932.14655	-107.54977	-138.44415	924.71307	-122.84864	62.748253	963.47986	-313.36505	-47.285759	952.93054	-319.00729
2634	26.33	86.410049	1560.9924	-54.133366	-70.499634	1554.5623	-60.444599	86.602715	1553.0099	-179.02132	-39.032642	1558.6882	-203.59473	16.723967	1385.2684	-227.10683	15.771192	1132.0699	-298.32144	8.189786	1278.8503	-55.124363	16.636211	1090.2694	-40.958267	-70.967583	1321.177	-264.8746	171.66936	1355.921	-122.14111	227.97961	1207.6954	-112.09664	249.48744	1026.179	-149.34708	205.90918	922.93463	-90.020645	181.15363	826.14471	-90.456474	246.95705	822.35754	-113.99582	228.23468	741.17078	-78.054428	-142.41335	1359.0272	-143.53285	-210.88899	1137.6915	-123.5584	-225.23389	1034.1162	-175.35658	-203.70607	962.47058	-99.743446	-179.45453	806.2124	-90.943726	-234.44824	810.93604	-139.33702	-224.36894	740.1886	-83.503242	138.42903	932.02167	-109.05997	-138.60187	924.61542	-124.01736	62.355194	964.06464	-314.51364	-47.565815	953.5672	-320.20602
2635	26.34	88.177795	1559.3845	-49.949177	-68.852867	1553.7902	-55.915524	88.013657	1552.4246	-174.87387	-37.668678	1559.2186	-199.24168	17.137035	1385.7056	-224.6058	15.385722	1133.0135	-298.07681	8.9175081	1277.4625	-53.385178	16.849003	1088.7787	-41.189583	-70.954483	1322.1307	-262.56262	172.286	1354.7183	-120.33411	228.3074	1206.3857	-111.72755	249.46898	1025.168	-149.9556	206.04892	921.63043	-91.236862	181.24574	824.78699	-91.414246	246.60707	821.07068	-116.04309	227.96091	739.70544	-80.15448	-141.81134	1358.8809	-140.56157	-210.57402	1137.4731	-122.27068	-225.42519	1034.2686	-174.72876	-203.18604	962.19153	-99.737152	-178.77429	805.99115	-92.069725	-234.21268	810.83679	-139.68466	-223.61453	739.91998	-84.244011	138.29688	931.94324	-110.38441	-138.84668	924.4892	-125.2056	61.961494	964.49591	-315.67896	-47.975475	953.86774	-321.05029
2636	26.35	89.837189	1557.7773	-45.915775	-67.286728	1552.926	-51.578403	89.337555	1551.8799	-170.88242	-36.368042	1559.38	-194.89851	17.464293	1385.9542	-221.82465	15.074372	1133.98	-297.79492	9.6034555	1275.9868	-51.914356	17.033833	1087.29	-41.58604	-70.861588	1323.0775	-260.48615	172.8763	1353.5076	-118.41935	228.63991	1204.981	-111.23272	249.46413	1024.1379	-150.4537	206.13867	920.32172	-92.414291	180.9285	823.67493	-93.37886	246.32492	819.79474	-117.90257	227.94585	738.53961	-82.299194	-141.11534	1358.6947	-137.55592	-210.15651	1137.2562	-120.93584	-225.59714	1034.4708	-174.12703	-202.73146	961.93286	-99.686569	-178.11586	805.82574	-92.922012	-234.04659	810.71106	-140.13522	-222.90074	739.68439	-84.914368	138.28775	931.7608	-111.69698	-139.0186	924.31592	-126.1806	61.431885	964.83868	-316.77048	-48.248207	954.14227	-321.98212
